<svg xmlns="http://www.w3.org/2000/svg" width="757" height="113" viewBox="0 0 757 113" fill="#1b1b1f" role="img" aria-label="OMNIGRAPH">
  <circle cx="28.6" cy="14.6" r="4.6"/>
  <circle cx="42.6" cy="14.6" r="4.6"/>
  <circle cx="56.6" cy="14.6" r="4.6"/>
  <circle cx="14.6" cy="28.6" r="4.6"/>
  <circle cx="70.6" cy="28.6" r="4.6"/>
  <circle cx="14.6" cy="42.6" r="4.6"/>
  <circle cx="70.6" cy="42.6" r="4.6"/>
  <circle cx="14.6" cy="56.6" r="4.6"/>
  <circle cx="70.6" cy="56.6" r="4.6"/>
  <circle cx="14.6" cy="70.6" r="4.6"/>
  <circle cx="70.6" cy="70.6" r="4.6"/>
  <circle cx="14.6" cy="84.6" r="4.6"/>
  <circle cx="70.6" cy="84.6" r="4.6"/>
  <circle cx="28.6" cy="98.6" r="4.6"/>
  <circle cx="42.6" cy="98.6" r="4.6"/>
  <circle cx="56.6" cy="98.6" r="4.6"/>
  <circle cx="98.6" cy="14.6" r="4.6"/>
  <circle cx="154.6" cy="14.6" r="4.6"/>
  <circle cx="98.6" cy="28.6" r="4.6"/>
  <circle cx="112.6" cy="28.6" r="4.6"/>
  <circle cx="140.6" cy="28.6" r="4.6"/>
  <circle cx="154.6" cy="28.6" r="4.6"/>
  <circle cx="98.6" cy="42.6" r="4.6"/>
  <circle cx="126.6" cy="42.6" r="4.6"/>
  <circle cx="154.6" cy="42.6" r="4.6"/>
  <circle cx="98.6" cy="56.6" r="4.6"/>
  <circle cx="126.6" cy="56.6" r="4.6"/>
  <circle cx="154.6" cy="56.6" r="4.6"/>
  <circle cx="98.6" cy="70.6" r="4.6"/>
  <circle cx="154.6" cy="70.6" r="4.6"/>
  <circle cx="98.6" cy="84.6" r="4.6"/>
  <circle cx="154.6" cy="84.6" r="4.6"/>
  <circle cx="98.6" cy="98.6" r="4.6"/>
  <circle cx="154.6" cy="98.6" r="4.6"/>
  <circle cx="182.6" cy="14.6" r="4.6"/>
  <circle cx="238.6" cy="14.6" r="4.6"/>
  <circle cx="182.6" cy="28.6" r="4.6"/>
  <circle cx="196.6" cy="28.6" r="4.6"/>
  <circle cx="238.6" cy="28.6" r="4.6"/>
  <circle cx="182.6" cy="42.6" r="4.6"/>
  <circle cx="196.6" cy="42.6" r="4.6"/>
  <circle cx="238.6" cy="42.6" r="4.6"/>
  <circle cx="182.6" cy="56.6" r="4.6"/>
  <circle cx="210.6" cy="56.6" r="4.6"/>
  <circle cx="238.6" cy="56.6" r="4.6"/>
  <circle cx="182.6" cy="70.6" r="4.6"/>
  <circle cx="224.6" cy="70.6" r="4.6"/>
  <circle cx="238.6" cy="70.6" r="4.6"/>
  <circle cx="182.6" cy="84.6" r="4.6"/>
  <circle cx="224.6" cy="84.6" r="4.6"/>
  <circle cx="238.6" cy="84.6" r="4.6"/>
  <circle cx="182.6" cy="98.6" r="4.6"/>
  <circle cx="238.6" cy="98.6" r="4.6"/>
  <circle cx="280.6" cy="14.6" r="4.6"/>
  <circle cx="294.6" cy="14.6" r="4.6"/>
  <circle cx="308.6" cy="14.6" r="4.6"/>
  <circle cx="294.6" cy="28.6" r="4.6"/>
  <circle cx="294.6" cy="42.6" r="4.6"/>
  <circle cx="294.6" cy="56.6" r="4.6"/>
  <circle cx="294.6" cy="70.6" r="4.6"/>
  <circle cx="294.6" cy="84.6" r="4.6"/>
  <circle cx="280.6" cy="98.6" r="4.6"/>
  <circle cx="294.6" cy="98.6" r="4.6"/>
  <circle cx="308.6" cy="98.6" r="4.6"/>
  <circle cx="364.6" cy="14.6" r="4.6"/>
  <circle cx="378.6" cy="14.6" r="4.6"/>
  <circle cx="392.6" cy="14.6" r="4.6"/>
  <circle cx="350.6" cy="28.6" r="4.6"/>
  <circle cx="406.6" cy="28.6" r="4.6"/>
  <circle cx="350.6" cy="42.6" r="4.6"/>
  <circle cx="350.6" cy="56.6" r="4.6"/>
  <circle cx="378.6" cy="56.6" r="4.6"/>
  <circle cx="392.6" cy="56.6" r="4.6"/>
  <circle cx="406.6" cy="56.6" r="4.6"/>
  <circle cx="350.6" cy="70.6" r="4.6"/>
  <circle cx="406.6" cy="70.6" r="4.6"/>
  <circle cx="350.6" cy="84.6" r="4.6"/>
  <circle cx="406.6" cy="84.6" r="4.6"/>
  <circle cx="364.6" cy="98.6" r="4.6"/>
  <circle cx="378.6" cy="98.6" r="4.6"/>
  <circle cx="392.6" cy="98.6" r="4.6"/>
  <circle cx="406.6" cy="98.6" r="4.6"/>
  <circle cx="434.6" cy="14.6" r="4.6"/>
  <circle cx="448.6" cy="14.6" r="4.6"/>
  <circle cx="462.6" cy="14.6" r="4.6"/>
  <circle cx="476.6" cy="14.6" r="4.6"/>
  <circle cx="434.6" cy="28.6" r="4.6"/>
  <circle cx="490.6" cy="28.6" r="4.6"/>
  <circle cx="434.6" cy="42.6" r="4.6"/>
  <circle cx="490.6" cy="42.6" r="4.6"/>
  <circle cx="434.6" cy="56.6" r="4.6"/>
  <circle cx="448.6" cy="56.6" r="4.6"/>
  <circle cx="462.6" cy="56.6" r="4.6"/>
  <circle cx="476.6" cy="56.6" r="4.6"/>
  <circle cx="434.6" cy="70.6" r="4.6"/>
  <circle cx="462.6" cy="70.6" r="4.6"/>
  <circle cx="434.6" cy="84.6" r="4.6"/>
  <circle cx="476.6" cy="84.6" r="4.6"/>
  <circle cx="434.6" cy="98.6" r="4.6"/>
  <circle cx="490.6" cy="98.6" r="4.6"/>
  <circle cx="532.6" cy="14.6" r="4.6"/>
  <circle cx="546.6" cy="14.6" r="4.6"/>
  <circle cx="560.6" cy="14.6" r="4.6"/>
  <circle cx="518.6" cy="28.6" r="4.6"/>
  <circle cx="574.6" cy="28.6" r="4.6"/>
  <circle cx="518.6" cy="42.6" r="4.6"/>
  <circle cx="574.6" cy="42.6" r="4.6"/>
  <circle cx="518.6" cy="56.6" r="4.6"/>
  <circle cx="532.6" cy="56.6" r="4.6"/>
  <circle cx="546.6" cy="56.6" r="4.6"/>
  <circle cx="560.6" cy="56.6" r="4.6"/>
  <circle cx="574.6" cy="56.6" r="4.6"/>
  <circle cx="518.6" cy="70.6" r="4.6"/>
  <circle cx="574.6" cy="70.6" r="4.6"/>
  <circle cx="518.6" cy="84.6" r="4.6"/>
  <circle cx="574.6" cy="84.6" r="4.6"/>
  <circle cx="518.6" cy="98.6" r="4.6"/>
  <circle cx="574.6" cy="98.6" r="4.6"/>
  <circle cx="602.6" cy="14.6" r="4.6"/>
  <circle cx="616.6" cy="14.6" r="4.6"/>
  <circle cx="630.6" cy="14.6" r="4.6"/>
  <circle cx="644.6" cy="14.6" r="4.6"/>
  <circle cx="602.6" cy="28.6" r="4.6"/>
  <circle cx="658.6" cy="28.6" r="4.6"/>
  <circle cx="602.6" cy="42.6" r="4.6"/>
  <circle cx="658.6" cy="42.6" r="4.6"/>
  <circle cx="602.6" cy="56.6" r="4.6"/>
  <circle cx="616.6" cy="56.6" r="4.6"/>
  <circle cx="630.6" cy="56.6" r="4.6"/>
  <circle cx="644.6" cy="56.6" r="4.6"/>
  <circle cx="602.6" cy="70.6" r="4.6"/>
  <circle cx="602.6" cy="84.6" r="4.6"/>
  <circle cx="602.6" cy="98.6" r="4.6"/>
  <circle cx="686.6" cy="14.6" r="4.6"/>
  <circle cx="742.6" cy="14.6" r="4.6"/>
  <circle cx="686.6" cy="28.6" r="4.6"/>
  <circle cx="742.6" cy="28.6" r="4.6"/>
  <circle cx="686.6" cy="42.6" r="4.6"/>
  <circle cx="742.6" cy="42.6" r="4.6"/>
  <circle cx="686.6" cy="56.6" r="4.6"/>
  <circle cx="700.6" cy="56.6" r="4.6"/>
  <circle cx="714.6" cy="56.6" r="4.6"/>
  <circle cx="728.6" cy="56.6" r="4.6"/>
  <circle cx="742.6" cy="56.6" r="4.6"/>
  <circle cx="686.6" cy="70.6" r="4.6"/>
  <circle cx="742.6" cy="70.6" r="4.6"/>
  <circle cx="686.6" cy="84.6" r="4.6"/>
  <circle cx="742.6" cy="84.6" r="4.6"/>
  <circle cx="686.6" cy="98.6" r="4.6"/>
  <circle cx="742.6" cy="98.6" r="4.6"/>
</svg>
