<svg xmlns="http://www.w3.org/2000/svg" width="1000" height="300" viewBox="0 0 1000 300" role="img" aria-label="OMNIGRAPH">
  <rect width="1000" height="300" fill="#f5f5f5"/>
  <g fill="#dcdcdc">
    <circle cx="20" cy="20" r="1.2"/>
    <circle cx="40" cy="20" r="1.2"/>
    <circle cx="60" cy="20" r="1.2"/>
    <circle cx="80" cy="20" r="1.2"/>
    <circle cx="100" cy="20" r="1.2"/>
    <circle cx="120" cy="20" r="1.2"/>
    <circle cx="140" cy="20" r="1.2"/>
    <circle cx="160" cy="20" r="1.2"/>
    <circle cx="180" cy="20" r="1.2"/>
    <circle cx="200" cy="20" r="1.2"/>
    <circle cx="220" cy="20" r="1.2"/>
    <circle cx="240" cy="20" r="1.2"/>
    <circle cx="260" cy="20" r="1.2"/>
    <circle cx="280" cy="20" r="1.2"/>
    <circle cx="300" cy="20" r="1.2"/>
    <circle cx="320" cy="20" r="1.2"/>
    <circle cx="340" cy="20" r="1.2"/>
    <circle cx="360" cy="20" r="1.2"/>
    <circle cx="380" cy="20" r="1.2"/>
    <circle cx="400" cy="20" r="1.2"/>
    <circle cx="420" cy="20" r="1.2"/>
    <circle cx="440" cy="20" r="1.2"/>
    <circle cx="460" cy="20" r="1.2"/>
    <circle cx="480" cy="20" r="1.2"/>
    <circle cx="500" cy="20" r="1.2"/>
    <circle cx="520" cy="20" r="1.2"/>
    <circle cx="540" cy="20" r="1.2"/>
    <circle cx="560" cy="20" r="1.2"/>
    <circle cx="580" cy="20" r="1.2"/>
    <circle cx="600" cy="20" r="1.2"/>
    <circle cx="620" cy="20" r="1.2"/>
    <circle cx="640" cy="20" r="1.2"/>
    <circle cx="660" cy="20" r="1.2"/>
    <circle cx="680" cy="20" r="1.2"/>
    <circle cx="700" cy="20" r="1.2"/>
    <circle cx="720" cy="20" r="1.2"/>
    <circle cx="740" cy="20" r="1.2"/>
    <circle cx="760" cy="20" r="1.2"/>
    <circle cx="780" cy="20" r="1.2"/>
    <circle cx="800" cy="20" r="1.2"/>
    <circle cx="820" cy="20" r="1.2"/>
    <circle cx="840" cy="20" r="1.2"/>
    <circle cx="860" cy="20" r="1.2"/>
    <circle cx="880" cy="20" r="1.2"/>
    <circle cx="900" cy="20" r="1.2"/>
    <circle cx="920" cy="20" r="1.2"/>
    <circle cx="940" cy="20" r="1.2"/>
    <circle cx="960" cy="20" r="1.2"/>
    <circle cx="980" cy="20" r="1.2"/>
    <circle cx="20" cy="40" r="1.2"/>
    <circle cx="40" cy="40" r="1.2"/>
    <circle cx="60" cy="40" r="1.2"/>
    <circle cx="80" cy="40" r="1.2"/>
    <circle cx="100" cy="40" r="1.2"/>
    <circle cx="120" cy="40" r="1.2"/>
    <circle cx="140" cy="40" r="1.2"/>
    <circle cx="160" cy="40" r="1.2"/>
    <circle cx="180" cy="40" r="1.2"/>
    <circle cx="200" cy="40" r="1.2"/>
    <circle cx="220" cy="40" r="1.2"/>
    <circle cx="240" cy="40" r="1.2"/>
    <circle cx="260" cy="40" r="1.2"/>
    <circle cx="280" cy="40" r="1.2"/>
    <circle cx="300" cy="40" r="1.2"/>
    <circle cx="320" cy="40" r="1.2"/>
    <circle cx="340" cy="40" r="1.2"/>
    <circle cx="360" cy="40" r="1.2"/>
    <circle cx="380" cy="40" r="1.2"/>
    <circle cx="400" cy="40" r="1.2"/>
    <circle cx="420" cy="40" r="1.2"/>
    <circle cx="440" cy="40" r="1.2"/>
    <circle cx="460" cy="40" r="1.2"/>
    <circle cx="480" cy="40" r="1.2"/>
    <circle cx="500" cy="40" r="1.2"/>
    <circle cx="520" cy="40" r="1.2"/>
    <circle cx="540" cy="40" r="1.2"/>
    <circle cx="560" cy="40" r="1.2"/>
    <circle cx="580" cy="40" r="1.2"/>
    <circle cx="600" cy="40" r="1.2"/>
    <circle cx="620" cy="40" r="1.2"/>
    <circle cx="640" cy="40" r="1.2"/>
    <circle cx="660" cy="40" r="1.2"/>
    <circle cx="680" cy="40" r="1.2"/>
    <circle cx="700" cy="40" r="1.2"/>
    <circle cx="720" cy="40" r="1.2"/>
    <circle cx="740" cy="40" r="1.2"/>
    <circle cx="760" cy="40" r="1.2"/>
    <circle cx="780" cy="40" r="1.2"/>
    <circle cx="800" cy="40" r="1.2"/>
    <circle cx="820" cy="40" r="1.2"/>
    <circle cx="840" cy="40" r="1.2"/>
    <circle cx="860" cy="40" r="1.2"/>
    <circle cx="880" cy="40" r="1.2"/>
    <circle cx="900" cy="40" r="1.2"/>
    <circle cx="920" cy="40" r="1.2"/>
    <circle cx="940" cy="40" r="1.2"/>
    <circle cx="960" cy="40" r="1.2"/>
    <circle cx="980" cy="40" r="1.2"/>
    <circle cx="20" cy="60" r="1.2"/>
    <circle cx="40" cy="60" r="1.2"/>
    <circle cx="60" cy="60" r="1.2"/>
    <circle cx="80" cy="60" r="1.2"/>
    <circle cx="100" cy="60" r="1.2"/>
    <circle cx="120" cy="60" r="1.2"/>
    <circle cx="140" cy="60" r="1.2"/>
    <circle cx="160" cy="60" r="1.2"/>
    <circle cx="180" cy="60" r="1.2"/>
    <circle cx="200" cy="60" r="1.2"/>
    <circle cx="220" cy="60" r="1.2"/>
    <circle cx="240" cy="60" r="1.2"/>
    <circle cx="260" cy="60" r="1.2"/>
    <circle cx="280" cy="60" r="1.2"/>
    <circle cx="300" cy="60" r="1.2"/>
    <circle cx="320" cy="60" r="1.2"/>
    <circle cx="340" cy="60" r="1.2"/>
    <circle cx="360" cy="60" r="1.2"/>
    <circle cx="380" cy="60" r="1.2"/>
    <circle cx="400" cy="60" r="1.2"/>
    <circle cx="420" cy="60" r="1.2"/>
    <circle cx="440" cy="60" r="1.2"/>
    <circle cx="460" cy="60" r="1.2"/>
    <circle cx="480" cy="60" r="1.2"/>
    <circle cx="500" cy="60" r="1.2"/>
    <circle cx="520" cy="60" r="1.2"/>
    <circle cx="540" cy="60" r="1.2"/>
    <circle cx="560" cy="60" r="1.2"/>
    <circle cx="580" cy="60" r="1.2"/>
    <circle cx="600" cy="60" r="1.2"/>
    <circle cx="620" cy="60" r="1.2"/>
    <circle cx="640" cy="60" r="1.2"/>
    <circle cx="660" cy="60" r="1.2"/>
    <circle cx="680" cy="60" r="1.2"/>
    <circle cx="700" cy="60" r="1.2"/>
    <circle cx="720" cy="60" r="1.2"/>
    <circle cx="740" cy="60" r="1.2"/>
    <circle cx="760" cy="60" r="1.2"/>
    <circle cx="780" cy="60" r="1.2"/>
    <circle cx="800" cy="60" r="1.2"/>
    <circle cx="820" cy="60" r="1.2"/>
    <circle cx="840" cy="60" r="1.2"/>
    <circle cx="860" cy="60" r="1.2"/>
    <circle cx="880" cy="60" r="1.2"/>
    <circle cx="900" cy="60" r="1.2"/>
    <circle cx="920" cy="60" r="1.2"/>
    <circle cx="940" cy="60" r="1.2"/>
    <circle cx="960" cy="60" r="1.2"/>
    <circle cx="980" cy="60" r="1.2"/>
    <circle cx="20" cy="80" r="1.2"/>
    <circle cx="40" cy="80" r="1.2"/>
    <circle cx="60" cy="80" r="1.2"/>
    <circle cx="80" cy="80" r="1.2"/>
    <circle cx="100" cy="80" r="1.2"/>
    <circle cx="120" cy="80" r="1.2"/>
    <circle cx="140" cy="80" r="1.2"/>
    <circle cx="160" cy="80" r="1.2"/>
    <circle cx="180" cy="80" r="1.2"/>
    <circle cx="200" cy="80" r="1.2"/>
    <circle cx="220" cy="80" r="1.2"/>
    <circle cx="240" cy="80" r="1.2"/>
    <circle cx="260" cy="80" r="1.2"/>
    <circle cx="280" cy="80" r="1.2"/>
    <circle cx="300" cy="80" r="1.2"/>
    <circle cx="320" cy="80" r="1.2"/>
    <circle cx="340" cy="80" r="1.2"/>
    <circle cx="360" cy="80" r="1.2"/>
    <circle cx="380" cy="80" r="1.2"/>
    <circle cx="400" cy="80" r="1.2"/>
    <circle cx="420" cy="80" r="1.2"/>
    <circle cx="440" cy="80" r="1.2"/>
    <circle cx="460" cy="80" r="1.2"/>
    <circle cx="480" cy="80" r="1.2"/>
    <circle cx="500" cy="80" r="1.2"/>
    <circle cx="520" cy="80" r="1.2"/>
    <circle cx="540" cy="80" r="1.2"/>
    <circle cx="560" cy="80" r="1.2"/>
    <circle cx="580" cy="80" r="1.2"/>
    <circle cx="600" cy="80" r="1.2"/>
    <circle cx="620" cy="80" r="1.2"/>
    <circle cx="640" cy="80" r="1.2"/>
    <circle cx="660" cy="80" r="1.2"/>
    <circle cx="680" cy="80" r="1.2"/>
    <circle cx="700" cy="80" r="1.2"/>
    <circle cx="720" cy="80" r="1.2"/>
    <circle cx="740" cy="80" r="1.2"/>
    <circle cx="760" cy="80" r="1.2"/>
    <circle cx="780" cy="80" r="1.2"/>
    <circle cx="800" cy="80" r="1.2"/>
    <circle cx="820" cy="80" r="1.2"/>
    <circle cx="840" cy="80" r="1.2"/>
    <circle cx="860" cy="80" r="1.2"/>
    <circle cx="880" cy="80" r="1.2"/>
    <circle cx="900" cy="80" r="1.2"/>
    <circle cx="920" cy="80" r="1.2"/>
    <circle cx="940" cy="80" r="1.2"/>
    <circle cx="960" cy="80" r="1.2"/>
    <circle cx="980" cy="80" r="1.2"/>
    <circle cx="20" cy="100" r="1.2"/>
    <circle cx="40" cy="100" r="1.2"/>
    <circle cx="60" cy="100" r="1.2"/>
    <circle cx="80" cy="100" r="1.2"/>
    <circle cx="100" cy="100" r="1.2"/>
    <circle cx="120" cy="100" r="1.2"/>
    <circle cx="140" cy="100" r="1.2"/>
    <circle cx="160" cy="100" r="1.2"/>
    <circle cx="180" cy="100" r="1.2"/>
    <circle cx="200" cy="100" r="1.2"/>
    <circle cx="220" cy="100" r="1.2"/>
    <circle cx="240" cy="100" r="1.2"/>
    <circle cx="260" cy="100" r="1.2"/>
    <circle cx="280" cy="100" r="1.2"/>
    <circle cx="300" cy="100" r="1.2"/>
    <circle cx="320" cy="100" r="1.2"/>
    <circle cx="340" cy="100" r="1.2"/>
    <circle cx="360" cy="100" r="1.2"/>
    <circle cx="380" cy="100" r="1.2"/>
    <circle cx="400" cy="100" r="1.2"/>
    <circle cx="420" cy="100" r="1.2"/>
    <circle cx="440" cy="100" r="1.2"/>
    <circle cx="460" cy="100" r="1.2"/>
    <circle cx="480" cy="100" r="1.2"/>
    <circle cx="500" cy="100" r="1.2"/>
    <circle cx="520" cy="100" r="1.2"/>
    <circle cx="540" cy="100" r="1.2"/>
    <circle cx="560" cy="100" r="1.2"/>
    <circle cx="580" cy="100" r="1.2"/>
    <circle cx="600" cy="100" r="1.2"/>
    <circle cx="620" cy="100" r="1.2"/>
    <circle cx="640" cy="100" r="1.2"/>
    <circle cx="660" cy="100" r="1.2"/>
    <circle cx="680" cy="100" r="1.2"/>
    <circle cx="700" cy="100" r="1.2"/>
    <circle cx="720" cy="100" r="1.2"/>
    <circle cx="740" cy="100" r="1.2"/>
    <circle cx="760" cy="100" r="1.2"/>
    <circle cx="780" cy="100" r="1.2"/>
    <circle cx="800" cy="100" r="1.2"/>
    <circle cx="820" cy="100" r="1.2"/>
    <circle cx="840" cy="100" r="1.2"/>
    <circle cx="860" cy="100" r="1.2"/>
    <circle cx="880" cy="100" r="1.2"/>
    <circle cx="900" cy="100" r="1.2"/>
    <circle cx="920" cy="100" r="1.2"/>
    <circle cx="940" cy="100" r="1.2"/>
    <circle cx="960" cy="100" r="1.2"/>
    <circle cx="980" cy="100" r="1.2"/>
    <circle cx="20" cy="120" r="1.2"/>
    <circle cx="40" cy="120" r="1.2"/>
    <circle cx="60" cy="120" r="1.2"/>
    <circle cx="80" cy="120" r="1.2"/>
    <circle cx="100" cy="120" r="1.2"/>
    <circle cx="120" cy="120" r="1.2"/>
    <circle cx="140" cy="120" r="1.2"/>
    <circle cx="160" cy="120" r="1.2"/>
    <circle cx="180" cy="120" r="1.2"/>
    <circle cx="200" cy="120" r="1.2"/>
    <circle cx="220" cy="120" r="1.2"/>
    <circle cx="240" cy="120" r="1.2"/>
    <circle cx="260" cy="120" r="1.2"/>
    <circle cx="280" cy="120" r="1.2"/>
    <circle cx="300" cy="120" r="1.2"/>
    <circle cx="320" cy="120" r="1.2"/>
    <circle cx="340" cy="120" r="1.2"/>
    <circle cx="360" cy="120" r="1.2"/>
    <circle cx="380" cy="120" r="1.2"/>
    <circle cx="400" cy="120" r="1.2"/>
    <circle cx="420" cy="120" r="1.2"/>
    <circle cx="440" cy="120" r="1.2"/>
    <circle cx="460" cy="120" r="1.2"/>
    <circle cx="480" cy="120" r="1.2"/>
    <circle cx="500" cy="120" r="1.2"/>
    <circle cx="520" cy="120" r="1.2"/>
    <circle cx="540" cy="120" r="1.2"/>
    <circle cx="560" cy="120" r="1.2"/>
    <circle cx="580" cy="120" r="1.2"/>
    <circle cx="600" cy="120" r="1.2"/>
    <circle cx="620" cy="120" r="1.2"/>
    <circle cx="640" cy="120" r="1.2"/>
    <circle cx="660" cy="120" r="1.2"/>
    <circle cx="680" cy="120" r="1.2"/>
    <circle cx="700" cy="120" r="1.2"/>
    <circle cx="720" cy="120" r="1.2"/>
    <circle cx="740" cy="120" r="1.2"/>
    <circle cx="760" cy="120" r="1.2"/>
    <circle cx="780" cy="120" r="1.2"/>
    <circle cx="800" cy="120" r="1.2"/>
    <circle cx="820" cy="120" r="1.2"/>
    <circle cx="840" cy="120" r="1.2"/>
    <circle cx="860" cy="120" r="1.2"/>
    <circle cx="880" cy="120" r="1.2"/>
    <circle cx="900" cy="120" r="1.2"/>
    <circle cx="920" cy="120" r="1.2"/>
    <circle cx="940" cy="120" r="1.2"/>
    <circle cx="960" cy="120" r="1.2"/>
    <circle cx="980" cy="120" r="1.2"/>
    <circle cx="20" cy="140" r="1.2"/>
    <circle cx="40" cy="140" r="1.2"/>
    <circle cx="60" cy="140" r="1.2"/>
    <circle cx="80" cy="140" r="1.2"/>
    <circle cx="100" cy="140" r="1.2"/>
    <circle cx="120" cy="140" r="1.2"/>
    <circle cx="140" cy="140" r="1.2"/>
    <circle cx="160" cy="140" r="1.2"/>
    <circle cx="180" cy="140" r="1.2"/>
    <circle cx="200" cy="140" r="1.2"/>
    <circle cx="220" cy="140" r="1.2"/>
    <circle cx="240" cy="140" r="1.2"/>
    <circle cx="260" cy="140" r="1.2"/>
    <circle cx="280" cy="140" r="1.2"/>
    <circle cx="300" cy="140" r="1.2"/>
    <circle cx="320" cy="140" r="1.2"/>
    <circle cx="340" cy="140" r="1.2"/>
    <circle cx="360" cy="140" r="1.2"/>
    <circle cx="380" cy="140" r="1.2"/>
    <circle cx="400" cy="140" r="1.2"/>
    <circle cx="420" cy="140" r="1.2"/>
    <circle cx="440" cy="140" r="1.2"/>
    <circle cx="460" cy="140" r="1.2"/>
    <circle cx="480" cy="140" r="1.2"/>
    <circle cx="500" cy="140" r="1.2"/>
    <circle cx="520" cy="140" r="1.2"/>
    <circle cx="540" cy="140" r="1.2"/>
    <circle cx="560" cy="140" r="1.2"/>
    <circle cx="580" cy="140" r="1.2"/>
    <circle cx="600" cy="140" r="1.2"/>
    <circle cx="620" cy="140" r="1.2"/>
    <circle cx="640" cy="140" r="1.2"/>
    <circle cx="660" cy="140" r="1.2"/>
    <circle cx="680" cy="140" r="1.2"/>
    <circle cx="700" cy="140" r="1.2"/>
    <circle cx="720" cy="140" r="1.2"/>
    <circle cx="740" cy="140" r="1.2"/>
    <circle cx="760" cy="140" r="1.2"/>
    <circle cx="780" cy="140" r="1.2"/>
    <circle cx="800" cy="140" r="1.2"/>
    <circle cx="820" cy="140" r="1.2"/>
    <circle cx="840" cy="140" r="1.2"/>
    <circle cx="860" cy="140" r="1.2"/>
    <circle cx="880" cy="140" r="1.2"/>
    <circle cx="900" cy="140" r="1.2"/>
    <circle cx="920" cy="140" r="1.2"/>
    <circle cx="940" cy="140" r="1.2"/>
    <circle cx="960" cy="140" r="1.2"/>
    <circle cx="980" cy="140" r="1.2"/>
    <circle cx="20" cy="160" r="1.2"/>
    <circle cx="40" cy="160" r="1.2"/>
    <circle cx="60" cy="160" r="1.2"/>
    <circle cx="80" cy="160" r="1.2"/>
    <circle cx="100" cy="160" r="1.2"/>
    <circle cx="120" cy="160" r="1.2"/>
    <circle cx="140" cy="160" r="1.2"/>
    <circle cx="160" cy="160" r="1.2"/>
    <circle cx="180" cy="160" r="1.2"/>
    <circle cx="200" cy="160" r="1.2"/>
    <circle cx="220" cy="160" r="1.2"/>
    <circle cx="240" cy="160" r="1.2"/>
    <circle cx="260" cy="160" r="1.2"/>
    <circle cx="280" cy="160" r="1.2"/>
    <circle cx="300" cy="160" r="1.2"/>
    <circle cx="320" cy="160" r="1.2"/>
    <circle cx="340" cy="160" r="1.2"/>
    <circle cx="360" cy="160" r="1.2"/>
    <circle cx="380" cy="160" r="1.2"/>
    <circle cx="400" cy="160" r="1.2"/>
    <circle cx="420" cy="160" r="1.2"/>
    <circle cx="440" cy="160" r="1.2"/>
    <circle cx="460" cy="160" r="1.2"/>
    <circle cx="480" cy="160" r="1.2"/>
    <circle cx="500" cy="160" r="1.2"/>
    <circle cx="520" cy="160" r="1.2"/>
    <circle cx="540" cy="160" r="1.2"/>
    <circle cx="560" cy="160" r="1.2"/>
    <circle cx="580" cy="160" r="1.2"/>
    <circle cx="600" cy="160" r="1.2"/>
    <circle cx="620" cy="160" r="1.2"/>
    <circle cx="640" cy="160" r="1.2"/>
    <circle cx="660" cy="160" r="1.2"/>
    <circle cx="680" cy="160" r="1.2"/>
    <circle cx="700" cy="160" r="1.2"/>
    <circle cx="720" cy="160" r="1.2"/>
    <circle cx="740" cy="160" r="1.2"/>
    <circle cx="760" cy="160" r="1.2"/>
    <circle cx="780" cy="160" r="1.2"/>
    <circle cx="800" cy="160" r="1.2"/>
    <circle cx="820" cy="160" r="1.2"/>
    <circle cx="840" cy="160" r="1.2"/>
    <circle cx="860" cy="160" r="1.2"/>
    <circle cx="880" cy="160" r="1.2"/>
    <circle cx="900" cy="160" r="1.2"/>
    <circle cx="920" cy="160" r="1.2"/>
    <circle cx="940" cy="160" r="1.2"/>
    <circle cx="960" cy="160" r="1.2"/>
    <circle cx="980" cy="160" r="1.2"/>
    <circle cx="20" cy="180" r="1.2"/>
    <circle cx="40" cy="180" r="1.2"/>
    <circle cx="60" cy="180" r="1.2"/>
    <circle cx="80" cy="180" r="1.2"/>
    <circle cx="100" cy="180" r="1.2"/>
    <circle cx="120" cy="180" r="1.2"/>
    <circle cx="140" cy="180" r="1.2"/>
    <circle cx="160" cy="180" r="1.2"/>
    <circle cx="180" cy="180" r="1.2"/>
    <circle cx="200" cy="180" r="1.2"/>
    <circle cx="220" cy="180" r="1.2"/>
    <circle cx="240" cy="180" r="1.2"/>
    <circle cx="260" cy="180" r="1.2"/>
    <circle cx="280" cy="180" r="1.2"/>
    <circle cx="300" cy="180" r="1.2"/>
    <circle cx="320" cy="180" r="1.2"/>
    <circle cx="340" cy="180" r="1.2"/>
    <circle cx="360" cy="180" r="1.2"/>
    <circle cx="380" cy="180" r="1.2"/>
    <circle cx="400" cy="180" r="1.2"/>
    <circle cx="420" cy="180" r="1.2"/>
    <circle cx="440" cy="180" r="1.2"/>
    <circle cx="460" cy="180" r="1.2"/>
    <circle cx="480" cy="180" r="1.2"/>
    <circle cx="500" cy="180" r="1.2"/>
    <circle cx="520" cy="180" r="1.2"/>
    <circle cx="540" cy="180" r="1.2"/>
    <circle cx="560" cy="180" r="1.2"/>
    <circle cx="580" cy="180" r="1.2"/>
    <circle cx="600" cy="180" r="1.2"/>
    <circle cx="620" cy="180" r="1.2"/>
    <circle cx="640" cy="180" r="1.2"/>
    <circle cx="660" cy="180" r="1.2"/>
    <circle cx="680" cy="180" r="1.2"/>
    <circle cx="700" cy="180" r="1.2"/>
    <circle cx="720" cy="180" r="1.2"/>
    <circle cx="740" cy="180" r="1.2"/>
    <circle cx="760" cy="180" r="1.2"/>
    <circle cx="780" cy="180" r="1.2"/>
    <circle cx="800" cy="180" r="1.2"/>
    <circle cx="820" cy="180" r="1.2"/>
    <circle cx="840" cy="180" r="1.2"/>
    <circle cx="860" cy="180" r="1.2"/>
    <circle cx="880" cy="180" r="1.2"/>
    <circle cx="900" cy="180" r="1.2"/>
    <circle cx="920" cy="180" r="1.2"/>
    <circle cx="940" cy="180" r="1.2"/>
    <circle cx="960" cy="180" r="1.2"/>
    <circle cx="980" cy="180" r="1.2"/>
    <circle cx="20" cy="200" r="1.2"/>
    <circle cx="40" cy="200" r="1.2"/>
    <circle cx="60" cy="200" r="1.2"/>
    <circle cx="80" cy="200" r="1.2"/>
    <circle cx="100" cy="200" r="1.2"/>
    <circle cx="120" cy="200" r="1.2"/>
    <circle cx="140" cy="200" r="1.2"/>
    <circle cx="160" cy="200" r="1.2"/>
    <circle cx="180" cy="200" r="1.2"/>
    <circle cx="200" cy="200" r="1.2"/>
    <circle cx="220" cy="200" r="1.2"/>
    <circle cx="240" cy="200" r="1.2"/>
    <circle cx="260" cy="200" r="1.2"/>
    <circle cx="280" cy="200" r="1.2"/>
    <circle cx="300" cy="200" r="1.2"/>
    <circle cx="320" cy="200" r="1.2"/>
    <circle cx="340" cy="200" r="1.2"/>
    <circle cx="360" cy="200" r="1.2"/>
    <circle cx="380" cy="200" r="1.2"/>
    <circle cx="400" cy="200" r="1.2"/>
    <circle cx="420" cy="200" r="1.2"/>
    <circle cx="440" cy="200" r="1.2"/>
    <circle cx="460" cy="200" r="1.2"/>
    <circle cx="480" cy="200" r="1.2"/>
    <circle cx="500" cy="200" r="1.2"/>
    <circle cx="520" cy="200" r="1.2"/>
    <circle cx="540" cy="200" r="1.2"/>
    <circle cx="560" cy="200" r="1.2"/>
    <circle cx="580" cy="200" r="1.2"/>
    <circle cx="600" cy="200" r="1.2"/>
    <circle cx="620" cy="200" r="1.2"/>
    <circle cx="640" cy="200" r="1.2"/>
    <circle cx="660" cy="200" r="1.2"/>
    <circle cx="680" cy="200" r="1.2"/>
    <circle cx="700" cy="200" r="1.2"/>
    <circle cx="720" cy="200" r="1.2"/>
    <circle cx="740" cy="200" r="1.2"/>
    <circle cx="760" cy="200" r="1.2"/>
    <circle cx="780" cy="200" r="1.2"/>
    <circle cx="800" cy="200" r="1.2"/>
    <circle cx="820" cy="200" r="1.2"/>
    <circle cx="840" cy="200" r="1.2"/>
    <circle cx="860" cy="200" r="1.2"/>
    <circle cx="880" cy="200" r="1.2"/>
    <circle cx="900" cy="200" r="1.2"/>
    <circle cx="920" cy="200" r="1.2"/>
    <circle cx="940" cy="200" r="1.2"/>
    <circle cx="960" cy="200" r="1.2"/>
    <circle cx="980" cy="200" r="1.2"/>
    <circle cx="20" cy="220" r="1.2"/>
    <circle cx="40" cy="220" r="1.2"/>
    <circle cx="60" cy="220" r="1.2"/>
    <circle cx="80" cy="220" r="1.2"/>
    <circle cx="100" cy="220" r="1.2"/>
    <circle cx="120" cy="220" r="1.2"/>
    <circle cx="140" cy="220" r="1.2"/>
    <circle cx="160" cy="220" r="1.2"/>
    <circle cx="180" cy="220" r="1.2"/>
    <circle cx="200" cy="220" r="1.2"/>
    <circle cx="220" cy="220" r="1.2"/>
    <circle cx="240" cy="220" r="1.2"/>
    <circle cx="260" cy="220" r="1.2"/>
    <circle cx="280" cy="220" r="1.2"/>
    <circle cx="300" cy="220" r="1.2"/>
    <circle cx="320" cy="220" r="1.2"/>
    <circle cx="340" cy="220" r="1.2"/>
    <circle cx="360" cy="220" r="1.2"/>
    <circle cx="380" cy="220" r="1.2"/>
    <circle cx="400" cy="220" r="1.2"/>
    <circle cx="420" cy="220" r="1.2"/>
    <circle cx="440" cy="220" r="1.2"/>
    <circle cx="460" cy="220" r="1.2"/>
    <circle cx="480" cy="220" r="1.2"/>
    <circle cx="500" cy="220" r="1.2"/>
    <circle cx="520" cy="220" r="1.2"/>
    <circle cx="540" cy="220" r="1.2"/>
    <circle cx="560" cy="220" r="1.2"/>
    <circle cx="580" cy="220" r="1.2"/>
    <circle cx="600" cy="220" r="1.2"/>
    <circle cx="620" cy="220" r="1.2"/>
    <circle cx="640" cy="220" r="1.2"/>
    <circle cx="660" cy="220" r="1.2"/>
    <circle cx="680" cy="220" r="1.2"/>
    <circle cx="700" cy="220" r="1.2"/>
    <circle cx="720" cy="220" r="1.2"/>
    <circle cx="740" cy="220" r="1.2"/>
    <circle cx="760" cy="220" r="1.2"/>
    <circle cx="780" cy="220" r="1.2"/>
    <circle cx="800" cy="220" r="1.2"/>
    <circle cx="820" cy="220" r="1.2"/>
    <circle cx="840" cy="220" r="1.2"/>
    <circle cx="860" cy="220" r="1.2"/>
    <circle cx="880" cy="220" r="1.2"/>
    <circle cx="900" cy="220" r="1.2"/>
    <circle cx="920" cy="220" r="1.2"/>
    <circle cx="940" cy="220" r="1.2"/>
    <circle cx="960" cy="220" r="1.2"/>
    <circle cx="980" cy="220" r="1.2"/>
    <circle cx="20" cy="240" r="1.2"/>
    <circle cx="40" cy="240" r="1.2"/>
    <circle cx="60" cy="240" r="1.2"/>
    <circle cx="80" cy="240" r="1.2"/>
    <circle cx="100" cy="240" r="1.2"/>
    <circle cx="120" cy="240" r="1.2"/>
    <circle cx="140" cy="240" r="1.2"/>
    <circle cx="160" cy="240" r="1.2"/>
    <circle cx="180" cy="240" r="1.2"/>
    <circle cx="200" cy="240" r="1.2"/>
    <circle cx="220" cy="240" r="1.2"/>
    <circle cx="240" cy="240" r="1.2"/>
    <circle cx="260" cy="240" r="1.2"/>
    <circle cx="280" cy="240" r="1.2"/>
    <circle cx="300" cy="240" r="1.2"/>
    <circle cx="320" cy="240" r="1.2"/>
    <circle cx="340" cy="240" r="1.2"/>
    <circle cx="360" cy="240" r="1.2"/>
    <circle cx="380" cy="240" r="1.2"/>
    <circle cx="400" cy="240" r="1.2"/>
    <circle cx="420" cy="240" r="1.2"/>
    <circle cx="440" cy="240" r="1.2"/>
    <circle cx="460" cy="240" r="1.2"/>
    <circle cx="480" cy="240" r="1.2"/>
    <circle cx="500" cy="240" r="1.2"/>
    <circle cx="520" cy="240" r="1.2"/>
    <circle cx="540" cy="240" r="1.2"/>
    <circle cx="560" cy="240" r="1.2"/>
    <circle cx="580" cy="240" r="1.2"/>
    <circle cx="600" cy="240" r="1.2"/>
    <circle cx="620" cy="240" r="1.2"/>
    <circle cx="640" cy="240" r="1.2"/>
    <circle cx="660" cy="240" r="1.2"/>
    <circle cx="680" cy="240" r="1.2"/>
    <circle cx="700" cy="240" r="1.2"/>
    <circle cx="720" cy="240" r="1.2"/>
    <circle cx="740" cy="240" r="1.2"/>
    <circle cx="760" cy="240" r="1.2"/>
    <circle cx="780" cy="240" r="1.2"/>
    <circle cx="800" cy="240" r="1.2"/>
    <circle cx="820" cy="240" r="1.2"/>
    <circle cx="840" cy="240" r="1.2"/>
    <circle cx="860" cy="240" r="1.2"/>
    <circle cx="880" cy="240" r="1.2"/>
    <circle cx="900" cy="240" r="1.2"/>
    <circle cx="920" cy="240" r="1.2"/>
    <circle cx="940" cy="240" r="1.2"/>
    <circle cx="960" cy="240" r="1.2"/>
    <circle cx="980" cy="240" r="1.2"/>
    <circle cx="20" cy="260" r="1.2"/>
    <circle cx="40" cy="260" r="1.2"/>
    <circle cx="60" cy="260" r="1.2"/>
    <circle cx="80" cy="260" r="1.2"/>
    <circle cx="100" cy="260" r="1.2"/>
    <circle cx="120" cy="260" r="1.2"/>
    <circle cx="140" cy="260" r="1.2"/>
    <circle cx="160" cy="260" r="1.2"/>
    <circle cx="180" cy="260" r="1.2"/>
    <circle cx="200" cy="260" r="1.2"/>
    <circle cx="220" cy="260" r="1.2"/>
    <circle cx="240" cy="260" r="1.2"/>
    <circle cx="260" cy="260" r="1.2"/>
    <circle cx="280" cy="260" r="1.2"/>
    <circle cx="300" cy="260" r="1.2"/>
    <circle cx="320" cy="260" r="1.2"/>
    <circle cx="340" cy="260" r="1.2"/>
    <circle cx="360" cy="260" r="1.2"/>
    <circle cx="380" cy="260" r="1.2"/>
    <circle cx="400" cy="260" r="1.2"/>
    <circle cx="420" cy="260" r="1.2"/>
    <circle cx="440" cy="260" r="1.2"/>
    <circle cx="460" cy="260" r="1.2"/>
    <circle cx="480" cy="260" r="1.2"/>
    <circle cx="500" cy="260" r="1.2"/>
    <circle cx="520" cy="260" r="1.2"/>
    <circle cx="540" cy="260" r="1.2"/>
    <circle cx="560" cy="260" r="1.2"/>
    <circle cx="580" cy="260" r="1.2"/>
    <circle cx="600" cy="260" r="1.2"/>
    <circle cx="620" cy="260" r="1.2"/>
    <circle cx="640" cy="260" r="1.2"/>
    <circle cx="660" cy="260" r="1.2"/>
    <circle cx="680" cy="260" r="1.2"/>
    <circle cx="700" cy="260" r="1.2"/>
    <circle cx="720" cy="260" r="1.2"/>
    <circle cx="740" cy="260" r="1.2"/>
    <circle cx="760" cy="260" r="1.2"/>
    <circle cx="780" cy="260" r="1.2"/>
    <circle cx="800" cy="260" r="1.2"/>
    <circle cx="820" cy="260" r="1.2"/>
    <circle cx="840" cy="260" r="1.2"/>
    <circle cx="860" cy="260" r="1.2"/>
    <circle cx="880" cy="260" r="1.2"/>
    <circle cx="900" cy="260" r="1.2"/>
    <circle cx="920" cy="260" r="1.2"/>
    <circle cx="940" cy="260" r="1.2"/>
    <circle cx="960" cy="260" r="1.2"/>
    <circle cx="980" cy="260" r="1.2"/>
    <circle cx="20" cy="280" r="1.2"/>
    <circle cx="40" cy="280" r="1.2"/>
    <circle cx="60" cy="280" r="1.2"/>
    <circle cx="80" cy="280" r="1.2"/>
    <circle cx="100" cy="280" r="1.2"/>
    <circle cx="120" cy="280" r="1.2"/>
    <circle cx="140" cy="280" r="1.2"/>
    <circle cx="160" cy="280" r="1.2"/>
    <circle cx="180" cy="280" r="1.2"/>
    <circle cx="200" cy="280" r="1.2"/>
    <circle cx="220" cy="280" r="1.2"/>
    <circle cx="240" cy="280" r="1.2"/>
    <circle cx="260" cy="280" r="1.2"/>
    <circle cx="280" cy="280" r="1.2"/>
    <circle cx="300" cy="280" r="1.2"/>
    <circle cx="320" cy="280" r="1.2"/>
    <circle cx="340" cy="280" r="1.2"/>
    <circle cx="360" cy="280" r="1.2"/>
    <circle cx="380" cy="280" r="1.2"/>
    <circle cx="400" cy="280" r="1.2"/>
    <circle cx="420" cy="280" r="1.2"/>
    <circle cx="440" cy="280" r="1.2"/>
    <circle cx="460" cy="280" r="1.2"/>
    <circle cx="480" cy="280" r="1.2"/>
    <circle cx="500" cy="280" r="1.2"/>
    <circle cx="520" cy="280" r="1.2"/>
    <circle cx="540" cy="280" r="1.2"/>
    <circle cx="560" cy="280" r="1.2"/>
    <circle cx="580" cy="280" r="1.2"/>
    <circle cx="600" cy="280" r="1.2"/>
    <circle cx="620" cy="280" r="1.2"/>
    <circle cx="640" cy="280" r="1.2"/>
    <circle cx="660" cy="280" r="1.2"/>
    <circle cx="680" cy="280" r="1.2"/>
    <circle cx="700" cy="280" r="1.2"/>
    <circle cx="720" cy="280" r="1.2"/>
    <circle cx="740" cy="280" r="1.2"/>
    <circle cx="760" cy="280" r="1.2"/>
    <circle cx="780" cy="280" r="1.2"/>
    <circle cx="800" cy="280" r="1.2"/>
    <circle cx="820" cy="280" r="1.2"/>
    <circle cx="840" cy="280" r="1.2"/>
    <circle cx="860" cy="280" r="1.2"/>
    <circle cx="880" cy="280" r="1.2"/>
    <circle cx="900" cy="280" r="1.2"/>
    <circle cx="920" cy="280" r="1.2"/>
    <circle cx="940" cy="280" r="1.2"/>
    <circle cx="960" cy="280" r="1.2"/>
    <circle cx="980" cy="280" r="1.2"/>
  </g>
  <circle cx="20" cy="20" r="2.9" fill="#d71921"/>
  <g fill="#1b1b1f">
    <circle cx="200.0" cy="114.0" r="3.9"/>
    <circle cx="212.0" cy="114.0" r="3.9"/>
    <circle cx="224.0" cy="114.0" r="3.9"/>
    <circle cx="188.0" cy="126.0" r="3.9"/>
    <circle cx="236.0" cy="126.0" r="3.9"/>
    <circle cx="188.0" cy="138.0" r="3.9"/>
    <circle cx="236.0" cy="138.0" r="3.9"/>
    <circle cx="188.0" cy="150.0" r="3.9"/>
    <circle cx="236.0" cy="150.0" r="3.9"/>
    <circle cx="188.0" cy="162.0" r="3.9"/>
    <circle cx="236.0" cy="162.0" r="3.9"/>
    <circle cx="188.0" cy="174.0" r="3.9"/>
    <circle cx="236.0" cy="174.0" r="3.9"/>
    <circle cx="200.0" cy="186.0" r="3.9"/>
    <circle cx="212.0" cy="186.0" r="3.9"/>
    <circle cx="224.0" cy="186.0" r="3.9"/>
    <circle cx="260.0" cy="114.0" r="3.9"/>
    <circle cx="308.0" cy="114.0" r="3.9"/>
    <circle cx="260.0" cy="126.0" r="3.9"/>
    <circle cx="272.0" cy="126.0" r="3.9"/>
    <circle cx="296.0" cy="126.0" r="3.9"/>
    <circle cx="308.0" cy="126.0" r="3.9"/>
    <circle cx="260.0" cy="138.0" r="3.9"/>
    <circle cx="284.0" cy="138.0" r="3.9"/>
    <circle cx="308.0" cy="138.0" r="3.9"/>
    <circle cx="260.0" cy="150.0" r="3.9"/>
    <circle cx="284.0" cy="150.0" r="3.9"/>
    <circle cx="308.0" cy="150.0" r="3.9"/>
    <circle cx="260.0" cy="162.0" r="3.9"/>
    <circle cx="308.0" cy="162.0" r="3.9"/>
    <circle cx="260.0" cy="174.0" r="3.9"/>
    <circle cx="308.0" cy="174.0" r="3.9"/>
    <circle cx="260.0" cy="186.0" r="3.9"/>
    <circle cx="308.0" cy="186.0" r="3.9"/>
    <circle cx="332.0" cy="114.0" r="3.9"/>
    <circle cx="380.0" cy="114.0" r="3.9"/>
    <circle cx="332.0" cy="126.0" r="3.9"/>
    <circle cx="344.0" cy="126.0" r="3.9"/>
    <circle cx="380.0" cy="126.0" r="3.9"/>
    <circle cx="332.0" cy="138.0" r="3.9"/>
    <circle cx="344.0" cy="138.0" r="3.9"/>
    <circle cx="380.0" cy="138.0" r="3.9"/>
    <circle cx="332.0" cy="150.0" r="3.9"/>
    <circle cx="356.0" cy="150.0" r="3.9"/>
    <circle cx="380.0" cy="150.0" r="3.9"/>
    <circle cx="332.0" cy="162.0" r="3.9"/>
    <circle cx="368.0" cy="162.0" r="3.9"/>
    <circle cx="380.0" cy="162.0" r="3.9"/>
    <circle cx="332.0" cy="174.0" r="3.9"/>
    <circle cx="368.0" cy="174.0" r="3.9"/>
    <circle cx="380.0" cy="174.0" r="3.9"/>
    <circle cx="332.0" cy="186.0" r="3.9"/>
    <circle cx="380.0" cy="186.0" r="3.9"/>
    <circle cx="416.0" cy="114.0" r="3.9"/>
    <circle cx="428.0" cy="114.0" r="3.9"/>
    <circle cx="440.0" cy="114.0" r="3.9"/>
    <circle cx="428.0" cy="126.0" r="3.9"/>
    <circle cx="428.0" cy="138.0" r="3.9"/>
    <circle cx="428.0" cy="150.0" r="3.9"/>
    <circle cx="428.0" cy="162.0" r="3.9"/>
    <circle cx="428.0" cy="174.0" r="3.9"/>
    <circle cx="416.0" cy="186.0" r="3.9"/>
    <circle cx="428.0" cy="186.0" r="3.9"/>
    <circle cx="440.0" cy="186.0" r="3.9"/>
    <circle cx="488.0" cy="114.0" r="3.9"/>
    <circle cx="500.0" cy="114.0" r="3.9"/>
    <circle cx="512.0" cy="114.0" r="3.9"/>
    <circle cx="476.0" cy="126.0" r="3.9"/>
    <circle cx="524.0" cy="126.0" r="3.9"/>
    <circle cx="476.0" cy="138.0" r="3.9"/>
    <circle cx="476.0" cy="150.0" r="3.9"/>
    <circle cx="500.0" cy="150.0" r="3.9"/>
    <circle cx="512.0" cy="150.0" r="3.9"/>
    <circle cx="524.0" cy="150.0" r="3.9"/>
    <circle cx="476.0" cy="162.0" r="3.9"/>
    <circle cx="524.0" cy="162.0" r="3.9"/>
    <circle cx="476.0" cy="174.0" r="3.9"/>
    <circle cx="524.0" cy="174.0" r="3.9"/>
    <circle cx="488.0" cy="186.0" r="3.9"/>
    <circle cx="500.0" cy="186.0" r="3.9"/>
    <circle cx="512.0" cy="186.0" r="3.9"/>
    <circle cx="524.0" cy="186.0" r="3.9"/>
    <circle cx="548.0" cy="114.0" r="3.9"/>
    <circle cx="560.0" cy="114.0" r="3.9"/>
    <circle cx="572.0" cy="114.0" r="3.9"/>
    <circle cx="584.0" cy="114.0" r="3.9"/>
    <circle cx="548.0" cy="126.0" r="3.9"/>
    <circle cx="596.0" cy="126.0" r="3.9"/>
    <circle cx="548.0" cy="138.0" r="3.9"/>
    <circle cx="596.0" cy="138.0" r="3.9"/>
    <circle cx="548.0" cy="150.0" r="3.9"/>
    <circle cx="560.0" cy="150.0" r="3.9"/>
    <circle cx="572.0" cy="150.0" r="3.9"/>
    <circle cx="584.0" cy="150.0" r="3.9"/>
    <circle cx="548.0" cy="162.0" r="3.9"/>
    <circle cx="572.0" cy="162.0" r="3.9"/>
    <circle cx="548.0" cy="174.0" r="3.9"/>
    <circle cx="584.0" cy="174.0" r="3.9"/>
    <circle cx="548.0" cy="186.0" r="3.9"/>
    <circle cx="596.0" cy="186.0" r="3.9"/>
    <circle cx="632.0" cy="114.0" r="3.9"/>
    <circle cx="644.0" cy="114.0" r="3.9"/>
    <circle cx="656.0" cy="114.0" r="3.9"/>
    <circle cx="620.0" cy="126.0" r="3.9"/>
    <circle cx="668.0" cy="126.0" r="3.9"/>
    <circle cx="620.0" cy="138.0" r="3.9"/>
    <circle cx="668.0" cy="138.0" r="3.9"/>
    <circle cx="620.0" cy="150.0" r="3.9"/>
    <circle cx="632.0" cy="150.0" r="3.9"/>
    <circle cx="644.0" cy="150.0" r="3.9"/>
    <circle cx="656.0" cy="150.0" r="3.9"/>
    <circle cx="668.0" cy="150.0" r="3.9"/>
    <circle cx="620.0" cy="162.0" r="3.9"/>
    <circle cx="668.0" cy="162.0" r="3.9"/>
    <circle cx="620.0" cy="174.0" r="3.9"/>
    <circle cx="668.0" cy="174.0" r="3.9"/>
    <circle cx="620.0" cy="186.0" r="3.9"/>
    <circle cx="668.0" cy="186.0" r="3.9"/>
    <circle cx="692.0" cy="114.0" r="3.9"/>
    <circle cx="704.0" cy="114.0" r="3.9"/>
    <circle cx="716.0" cy="114.0" r="3.9"/>
    <circle cx="728.0" cy="114.0" r="3.9"/>
    <circle cx="692.0" cy="126.0" r="3.9"/>
    <circle cx="740.0" cy="126.0" r="3.9"/>
    <circle cx="692.0" cy="138.0" r="3.9"/>
    <circle cx="740.0" cy="138.0" r="3.9"/>
    <circle cx="692.0" cy="150.0" r="3.9"/>
    <circle cx="704.0" cy="150.0" r="3.9"/>
    <circle cx="716.0" cy="150.0" r="3.9"/>
    <circle cx="728.0" cy="150.0" r="3.9"/>
    <circle cx="692.0" cy="162.0" r="3.9"/>
    <circle cx="692.0" cy="174.0" r="3.9"/>
    <circle cx="692.0" cy="186.0" r="3.9"/>
    <circle cx="764.0" cy="114.0" r="3.9"/>
    <circle cx="812.0" cy="114.0" r="3.9"/>
    <circle cx="764.0" cy="126.0" r="3.9"/>
    <circle cx="812.0" cy="126.0" r="3.9"/>
    <circle cx="764.0" cy="138.0" r="3.9"/>
    <circle cx="812.0" cy="138.0" r="3.9"/>
    <circle cx="764.0" cy="150.0" r="3.9"/>
    <circle cx="776.0" cy="150.0" r="3.9"/>
    <circle cx="788.0" cy="150.0" r="3.9"/>
    <circle cx="800.0" cy="150.0" r="3.9"/>
    <circle cx="812.0" cy="150.0" r="3.9"/>
    <circle cx="764.0" cy="162.0" r="3.9"/>
    <circle cx="812.0" cy="162.0" r="3.9"/>
    <circle cx="764.0" cy="174.0" r="3.9"/>
    <circle cx="812.0" cy="174.0" r="3.9"/>
    <circle cx="764.0" cy="186.0" r="3.9"/>
    <circle cx="812.0" cy="186.0" r="3.9"/>
  </g>
</svg>
